<svg version="1.1" id="Layer_1" xmlns="http://www.w3.org/2000/svg" xmlns:xlink="http://www.w3.org/1999/xlink" x="0px" y="0px"
	 width="100%" viewBox="0 0 592 464" enable-background="new 0 0 592 464" xml:space="preserve">
<path fill="#000000" opacity="1.000000" stroke="none" 
	d="
M358.106934,449.794983 
	C360.018829,451.081390 361.965790,451.810120 362.972015,454.492035 
	C357.847717,456.396515 352.801514,458.323212 347.715057,460.136902 
	C345.695099,460.857208 344.303772,459.446350 342.788391,458.390747 
	C332.532288,451.246613 322.024780,444.523254 310.871735,438.819763 
	C307.377289,437.032806 304.477112,437.237457 301.021179,439.006653 
	C290.159973,444.566925 280.104889,451.392151 270.105591,458.291718 
	C267.009399,460.428101 264.366364,461.212708 260.981323,459.226318 
	C257.480255,457.171844 253.035919,456.936401 249.843918,453.795471 
	C251.312683,451.113831 253.766205,449.974152 256.026611,448.708344 
	C265.327332,443.500214 274.553009,438.142609 284.336426,433.852081 
	C285.683472,433.261292 287.364868,432.957672 287.534637,431.108154 
	C287.703247,429.270782 286.217499,428.456635 284.903351,427.817230 
	C269.438965,420.292847 253.876450,413.016357 235.986984,414.410919 
	C228.481003,414.996033 221.644775,418.431366 214.212311,419.628265 
	C190.050400,423.519318 169.179047,416.678650 150.748520,401.178711 
	C148.973953,399.686340 147.296936,398.076294 145.611465,396.481934 
	C145.421692,396.302490 145.472885,395.868286 145.273529,394.827728 
	C157.674347,393.023895 169.952133,393.455353 182.346130,394.496521 
	C194.524612,395.519623 205.817627,400.988220 219.162430,401.827911 
	C215.916443,397.513855 212.182922,396.013489 208.790268,394.165649 
	C203.511292,391.290405 198.325363,388.226837 193.664673,384.489197 
	C188.525513,380.367767 182.764816,378.342834 176.412109,377.334381 
	C166.420517,375.748291 156.405975,374.382599 146.375336,373.059723 
	C132.806473,371.270203 121.881050,363.934357 112.647552,354.081818 
	C105.575760,346.535889 99.946709,338.012787 95.664368,328.591827 
	C98.000244,326.831879 99.853081,328.029480 101.666718,328.566254 
	C121.700859,334.495697 139.865112,344.021027 156.254196,356.972015 
	C158.601883,358.827179 161.097473,360.500458 163.577423,362.179901 
	C164.378860,362.722595 165.349457,363.015503 166.887817,363.716766 
	C166.071625,361.048279 164.858536,359.373383 163.347015,357.911407 
	C155.530762,350.351471 149.051392,341.726624 142.717651,332.918640 
	C138.278122,326.744873 131.337830,323.298798 125.109352,319.195343 
	C121.363930,316.727783 117.402893,314.522705 113.349495,312.598328 
	C91.877457,302.404144 81.661613,284.073425 76.726013,262.000702 
	C75.709229,257.453491 74.429390,252.800888 75.123611,246.559036 
	C97.550484,263.099121 111.733826,284.995270 125.993019,306.991394 
	C122.821556,296.128479 118.590317,285.848450 116.370346,274.996613 
	C114.284988,264.802826 108.766800,256.626404 102.060860,249.140579 
	C97.256729,243.777771 92.937431,238.102478 89.170013,232.002014 
	C81.685730,219.882980 78.570465,206.703827 79.434128,192.467178 
	C79.846527,185.669189 80.052429,178.879074 81.513901,172.193710 
	C81.839821,170.702835 82.079361,169.252289 84.172112,167.651886 
	C100.685478,189.071487 102.462204,215.331863 108.834869,240.127762 
	C109.029114,239.349365 109.407753,238.566910 109.390793,237.793137 
	C108.888557,214.878418 113.571892,191.835403 104.852356,169.190948 
	C96.071579,146.387436 100.403763,124.030975 111.070938,102.651634 
	C111.887177,101.015739 112.875343,99.462021 113.843903,97.907684 
	C114.179329,97.369392 114.697853,96.945213 115.979507,95.541489 
	C122.671112,118.946388 118.464500,141.650314 117.737915,164.494659 
	C119.370018,160.156403 121.175400,155.874100 122.598152,151.468246 
	C125.560120,142.295944 131.549423,134.325775 133.105881,124.598953 
	C134.106201,118.347641 134.674377,112.081230 134.679321,105.745384 
	C134.693237,87.881760 140.107834,72.068977 152.627548,58.983799 
	C156.465424,54.972569 159.305618,49.828957 165.939468,47.607983 
	C164.294205,72.134056 159.848465,95.052635 144.356415,115.057610 
	C160.063095,100.047493 176.994019,89.445999 200.160553,92.209152 
	C197.349518,97.601318 193.869766,101.758652 189.711334,105.275467 
	C180.801727,112.810394 170.734253,118.106201 159.201675,120.467819 
	C141.204559,124.153244 130.416214,135.543213 125.390633,152.753922 
	C123.595200,158.902588 120.556175,164.781158 120.617264,172.658478 
	C126.787453,162.832703 130.746368,152.883713 138.884140,145.681458 
	C147.030533,138.471573 156.040131,133.265854 166.602509,130.764450 
	C168.229477,133.190292 166.573746,134.901199 165.882339,136.593048 
	C158.710571,154.141998 147.200317,167.871063 130.378036,177.012344 
	C120.988258,182.114777 115.608284,190.136261 114.064957,200.767609 
	C112.601982,210.845352 111.998756,220.956955 112.389984,231.130524 
	C112.517876,234.456314 114.556137,237.394150 114.372002,240.932343 
	C116.911743,216.232162 124.509796,194.500092 148.147018,180.138077 
	C148.487350,191.887466 146.530090,201.915283 142.983154,211.579941 
	C139.289841,221.643478 134.004303,230.817307 126.771515,238.908829 
	C118.355576,248.323959 115.199547,259.080994 119.012672,271.693420 
	C121.610962,280.287567 123.932106,288.957397 127.325203,297.283295 
	C127.971230,298.868500 128.432007,300.706940 131.017334,302.321838 
	C129.793365,289.820984 128.618759,278.142609 130.637924,266.488251 
	C132.687057,254.660934 136.804077,243.814667 145.418762,234.423004 
	C148.409103,239.558151 148.252457,244.981262 149.089554,250.021851 
	C151.753754,266.064514 150.938873,282.007904 144.232056,297.005981 
	C137.863129,311.248474 139.997757,323.837830 149.576782,335.629395 
	C155.741882,343.218445 161.449692,351.230164 169.629120,357.215424 
	C157.074982,335.119049 150.970856,312.268890 159.923096,287.369843 
	C162.010452,287.530365 162.664383,288.695068 163.410507,289.821777 
	C174.137726,306.021057 180.146332,323.712250 180.324081,343.245514 
	C180.357437,346.911407 180.451096,350.586884 180.246643,354.242859 
	C179.614700,365.543671 184.872330,373.651306 193.861267,379.765808 
	C203.225113,386.135254 212.553818,392.573547 223.091812,396.949768 
	C224.124863,397.378815 225.085846,398.133759 228.109360,397.330414 
	C218.047440,388.225616 207.796432,380.602844 201.499634,369.355316 
	C195.090790,357.907593 193.254364,345.316528 190.925980,332.455444 
	C193.075424,332.015198 194.303299,333.394775 195.417648,334.302277 
	C207.576874,344.204987 219.540207,354.291687 227.114304,368.481232 
	C229.714691,373.352905 231.653030,378.452087 233.351486,383.675812 
	C236.979889,394.835083 243.690536,403.059509 254.745270,407.907104 
	C270.490356,414.811523 286.617432,420.338867 303.408844,424.045776 
	C306.410828,424.708496 309.073944,424.073334 311.735992,423.449371 
	C327.300171,419.801178 342.538757,415.090088 357.292969,408.878448 
	C368.612000,404.113037 375.076874,395.108734 378.577423,383.850250 
	C385.285583,362.275452 400.034485,347.047638 417.338593,333.738556 
	C417.728760,333.438477 418.197571,333.213715 418.663300,333.048828 
	C418.946869,332.948425 419.294983,333.030304 420.369537,333.030304 
	C419.027313,346.339661 416.373932,359.014496 409.422821,370.737488 
	C402.451477,382.494659 391.863983,390.517548 381.669098,399.143707 
	C388.089294,398.734283 393.131134,395.228485 398.416931,392.508331 
	C404.929443,389.156952 411.067078,385.121429 417.037659,380.851227 
	C426.806976,373.864197 432.172852,364.482971 431.570618,352.398926 
	C430.539948,331.719025 434.621094,312.393311 445.589996,294.689667 
	C447.138641,292.190125 448.806091,289.764252 450.955688,286.484833 
	C456.203888,298.726929 456.237518,310.678101 455.028839,322.441315 
	C453.797394,334.426575 448.972534,345.499237 442.767914,355.765503 
	C444.396027,357.238617 445.300934,356.193085 446.032379,355.400848 
	C453.718872,347.075684 461.111847,338.528992 467.046082,328.799805 
	C473.190094,318.726715 472.474487,308.521851 467.928497,298.234863 
	C459.394379,278.923370 460.674622,258.982605 463.961945,238.903793 
	C464.169464,237.636108 464.838348,236.443970 465.706146,234.099457 
	C474.987732,243.834763 478.938751,255.158066 481.272308,267.232849 
	C483.601410,279.284698 482.039398,291.299500 481.323792,303.630890 
	C483.494019,298.568451 485.851440,293.576416 487.787811,288.426086 
	C490.305939,281.728485 492.085602,274.779724 493.335602,267.742889 
	C495.017303,258.276062 493.501831,249.308853 486.914001,242.010406 
	C475.567505,229.439972 468.238007,214.929504 465.191498,198.358383 
	C464.198120,192.955109 462.606598,187.404037 464.400726,180.962784 
	C475.328430,187.513641 483.219543,196.121536 488.707550,207.030869 
	C494.082458,217.715408 496.028107,229.276566 497.332245,241.077713 
	C499.568604,230.136200 500.451111,219.180359 499.091827,208.152802 
	C498.667023,204.706467 498.723907,201.228165 497.755402,197.788406 
	C495.175537,188.625488 489.966064,181.793274 481.514679,177.286926 
	C463.058197,167.445801 451.681946,151.852936 444.716125,131.261078 
	C469.446930,136.652054 482.927307,153.108307 492.523254,174.091797 
	C490.141083,161.923325 486.644989,150.321945 481.230804,139.429016 
	C476.101837,129.109940 466.875458,123.891663 456.134644,121.319710 
	C441.344635,117.778145 428.341461,111.246582 418.020660,99.901909 
	C416.077881,97.766380 413.707336,95.804008 412.872620,92.111694 
	C434.851532,89.572739 451.172302,99.682976 466.025665,113.939560 
	C462.702179,102.659966 454.130341,94.150299 451.656921,82.760468 
	C449.238434,71.623512 447.025848,60.484638 446.703094,49.164310 
	C449.093597,48.504292 450.269684,49.535908 451.316071,50.569984 
	C462.980896,62.097546 472.620087,74.904037 475.825378,91.447708 
	C476.767700,96.311218 477.376526,101.363998 477.196228,106.295593 
	C476.760223,118.218567 478.931030,129.358597 484.631073,139.934174 
	C488.804993,147.678299 490.642517,156.417648 494.528046,164.523438 
	C493.276215,141.868073 489.102539,119.199112 495.017090,96.631989 
	C497.846130,96.642494 498.387329,98.840416 499.265900,100.486717 
	C507.726990,116.341705 512.694153,133.066650 511.283569,151.237488 
	C510.742706,158.204956 509.423981,165.100983 506.961060,171.652420 
	C502.257904,184.162949 500.417145,196.789963 502.027191,210.264038 
	C503.299713,220.913345 502.930237,231.802185 501.877167,243.971710 
	C505.841156,235.769150 506.304688,228.104126 507.561310,220.714050 
	C510.401062,204.014236 514.933228,187.962250 523.726074,173.329681 
	C525.663574,170.105469 525.696716,170.125397 529.014954,168.107147 
	C531.571899,171.845993 531.410583,176.327499 532.069763,180.445831 
	C536.068604,205.429260 529.137146,227.106308 511.896484,245.610840 
	C503.869934,254.225800 497.386322,263.607422 495.014404,275.656342 
	C493.485168,283.424591 490.165405,290.839142 487.672546,298.420258 
	C487.281525,299.609436 486.213257,300.778351 487.540161,302.333252 
	C490.083771,302.286407 490.809113,300.083374 491.783020,298.311340 
	C502.009735,279.703613 515.340271,263.660980 531.593506,250.029037 
	C532.826965,248.994507 533.859009,247.575256 536.093506,247.448669 
	C537.187378,255.088181 534.902283,262.242798 532.864868,269.281219 
	C526.893372,289.909729 514.361877,305.064270 494.623688,314.114044 
	C482.001587,319.901123 471.437012,328.183716 463.535675,339.888428 
	C459.457092,345.930359 454.312347,351.249664 449.696442,356.933746 
	C448.484650,358.425964 446.688568,359.624451 446.781311,363.605072 
	C467.974731,347.200470 489.046082,332.324005 515.151245,326.968811 
	C515.335205,327.514404 515.727722,328.058044 515.589905,328.358307 
	C506.037415,349.170837 492.127045,365.438568 469.242493,372.054016 
	C461.550171,374.277679 453.424194,373.911438 445.591309,375.387299 
	C440.043793,376.432587 434.507751,377.546356 428.989227,378.734894 
	C425.526123,379.480743 422.612854,381.192963 419.780182,383.438568 
	C411.925385,389.665588 403.158417,394.500854 394.270050,399.096741 
	C391.685883,400.432953 389.117523,401.799774 385.614960,403.639435 
	C389.479889,405.131683 391.890625,403.915771 394.318542,403.254089 
	C406.640961,399.895874 418.640594,395.259705 431.522919,394.141815 
	C442.172058,393.217773 452.825653,393.684509 463.477692,393.854004 
	C464.879974,393.876312 466.438354,394.190033 467.686340,395.698273 
	C465.533447,398.928680 462.113098,400.794556 459.170685,403.064850 
	C445.412720,413.680084 430.076202,420.530029 412.457764,420.940918 
	C403.276642,421.155029 394.087982,419.822998 385.509705,416.620331 
	C374.914154,412.664612 364.790558,413.311279 354.422455,417.036713 
	C345.650360,420.188660 336.811157,423.146301 328.320984,427.022491 
	C326.858673,427.690063 324.958466,428.065979 324.874237,430.177490 
	C324.784760,432.419647 326.455353,433.186371 328.202423,434.002777 
	C338.315399,438.728790 348.170013,443.952209 358.106934,449.794983 
z"/>
<path fill="#000000" opacity="1.000000" stroke="none" 
	d="
M302.399780,210.089310 
	C302.597473,231.397324 302.034973,252.221680 302.778687,273.043610 
	C302.955688,277.999725 305.085907,279.768494 309.880096,279.704803 
	C322.181335,279.541321 334.486206,279.889099 346.691803,277.734192 
	C359.411255,275.488525 369.133087,268.961670 375.975769,258.038452 
	C376.833221,256.669647 377.673920,255.184982 379.869263,254.376648 
	C380.243866,260.078674 378.103912,265.147156 377.098419,270.309021 
	C375.194763,280.081757 372.548859,289.707672 370.411835,299.438599 
	C369.802368,302.213837 368.567505,303.396637 365.715057,303.392670 
	C330.549988,303.343903 295.384796,303.358398 260.219666,303.334839 
	C259.426941,303.334320 258.634369,303.079102 257.888977,302.950836 
	C257.819122,302.432312 257.624451,301.955200 257.756897,301.833130 
	C271.295654,289.358826 270.940430,272.576447 271.105255,256.378906 
	C271.459473,221.575150 271.040497,186.763504 270.935791,151.955093 
	C270.924774,148.290543 271.016174,144.620941 270.857208,140.962494 
	C270.446716,131.513123 267.564636,123.012802 260.957642,115.994331 
	C258.951233,113.862999 257.026123,111.655151 254.450348,108.803116 
	C276.469360,107.020042 297.535919,108.744087 318.911743,108.159485 
	C318.231415,111.738213 316.231659,113.355682 314.565613,115.095634 
	C306.761414,123.246056 303.889404,133.184265 303.289581,144.176834 
	C302.100006,165.978195 302.503143,187.791946 302.399780,210.089310 
z"/>
<path fill="#000000" opacity="1.000000" stroke="none" 
	d="
M417.283264,48.644684 
	C423.051636,52.920853 426.650604,58.640266 430.016571,64.280190 
	C435.610565,73.653313 440.368652,83.529831 448.713593,90.875748 
	C447.347015,92.400307 446.486084,91.548019 445.795380,90.983307 
	C439.725342,86.020325 432.261261,84.048775 425.175812,81.250534 
	C406.008423,73.680817 395.112152,58.558071 387.808472,40.183582 
	C387.692627,39.892208 387.710907,39.518085 387.762482,39.198036 
	C387.812469,38.888054 387.986328,38.598038 388.345673,37.699528 
	C398.805634,38.644257 408.312103,42.370773 417.283264,48.644684 
z"/>
<path fill="#000000" opacity="1.000000" stroke="none" 
	d="
M173.848206,77.889771 
	C178.292084,70.649635 181.351852,63.035709 186.616455,56.676540 
	C195.999908,45.342190 209.101105,41.612923 222.793472,37.801311 
	C223.502563,41.900726 221.405869,44.502911 220.288910,47.305622 
	C213.072693,65.412956 199.997223,77.329872 181.661804,83.661537 
	C177.249664,85.185158 173.046967,87.166985 169.138000,89.763802 
	C167.822388,90.637787 166.593689,91.954811 163.871048,91.308357 
	C167.633850,86.990189 171.416931,83.117378 173.848206,77.889771 
z"/>
</svg>